<svg xmlns="http://www.w3.org/2000/svg" viewBox="0 0 510 42"><defs><style>.cls-1{fill-opacity:0.2;fill-rule:evenodd;}</style></defs><title>horizontal-dark</title><g id="Capa_2" data-name="Capa 2"><g id="Capa_1-2" data-name="Capa 1"><path class="cls-1" d="M44.47,0A204.7,204.7,0,0,0,54.79,42H0V0ZM85.05,0H128.5a123.74,123.74,0,0,0,18.41,42H105.63A148.12,148.12,0,0,1,89.45,12.38Q87,6.28,85.05,0Zm70.12,0h25.48a74.74,74.74,0,0,0,8.58,15.62l-12,12.52a1.09,1.09,0,0,1-.46.32,1.18,1.18,0,0,1-1.17-.2h0A88.85,88.85,0,0,1,155.17,0Zm46.22,0h11.05l-5.05,5.28a.65.65,0,0,1-.28.2.7.7,0,0,1-.68-.13h0A54.07,54.07,0,0,1,201.39,0Zm86.53,0h16.64a52.06,52.06,0,0,1-3,6.48h0a.13.13,0,0,1,0,0,.67.67,0,0,1-.89.24h0Zm33.73,0h24.66a89,89,0,0,1-10,30.16h0l0,.09a1.14,1.14,0,0,1-1,.53,1,1,0,0,1-.49-.12l-.06,0-23.47-12.5A74.92,74.92,0,0,0,321.65,0ZM373.8,0h36.56c0,2.19-.12,4.38-.26,6.58A147.51,147.51,0,0,1,403.52,42H355.38A124,124,0,0,0,373.8,0Zm84,0H510V42H447.5A204.07,204.07,0,0,0,457.83,0ZM314,42H279.37A76,76,0,0,0,307.1,23l13.09,7.55a1.13,1.13,0,0,1,.49,1.54h0A87.29,87.29,0,0,1,314,42Zm-91.1,0H174.07l.05-.05,18.81-21.56h0A76,76,0,0,0,222.93,42Zm28.7-25.33A45,45,0,0,0,284.28,2.21L292,6.69a.64.64,0,0,1,.33.39.67.67,0,0,1,0,.52h0a52.93,52.93,0,0,1-15.51,17,53.77,53.77,0,0,1-21.33,8.88h-.06a.69.69,0,0,1-.75-.54v0Zm-35-16h0A45,45,0,0,0,248,16.56l1.42,9.56a.61.61,0,0,1,0,.33.67.67,0,0,1-.52.47h0a53.47,53.47,0,0,1-23-1.47,53.53,53.53,0,0,1-20.3-11h0l-.05,0a.67.67,0,0,1,0-.91l0,0Z"/></g></g></svg>